{"asset":{"version":"2.0","generator":"THREE.GLTFExporter"},"scenes":[{"name":"default","nodes":[0]}],"scene":0,"nodes":[{"name":"red_barrel","extras":{"data":{"name":"red_barrel","points":[{"name":"Origin","pos":{"x":0,"y":0,"z":0}}],"billboard":{"enabled":false,"y":false},"directional":{"enabled":false,"mode":"cameraAngle","angles":[]},"custom":[],"instances":[{"name":"red_barrel","uuid":"D6F7F289-5C82-45A6-B8C8-8D1A36197AB8","parent":null,"pos":{"x":-0.525,"y":-0.5,"z":0.155},"rot":{"x":0,"y":0,"z":0,"order":"XYZ"},"sca":{"x":1,"y":1,"z":1},"custom":[]}]}},"mesh":0}],"bufferViews":[{"buffer":0,"byteOffset":0,"byteLength":2880,"target":34962,"byteStride":12},{"buffer":0,"byteOffset":2880,"byteLength":2880,"target":34962,"byteStride":12},{"buffer":0,"byteOffset":5760,"byteLength":1920,"target":34962,"byteStride":8},{"buffer":0,"byteOffset":7680,"byteLength":480,"target":34963}],"buffers":[{"byteLength":8160,"uri":"data:application/octet-stream;base64,"}],"accessors":[{"bufferView":0,"componentType":5126,"count":240,"max":[1.048879623413086,1,0.30809804797172546],"min":[0.125,0,-0.6157814860343933],"type":"VEC3"},{"bufferView":1,"componentType":5126,"count":240,"max":[0.9964914321899414,1,0.9745430946350098],"min":[-0.9964914917945862,-1,-0.974543035030365],"type":"VEC3"},{"bufferView":2,"componentType":5126,"count":240,"max":[0.25,0.564117431640625],"min":[-0.0016174358315765858,0.373382568359375],"type":"VEC2"},{"bufferView":3,"componentType":5123,"count":240,"max":[239],"min":[0],"type":"SCALAR"}],"materials":[{"pbrMetallicRoughness":{"metallicFactor":0,"roughnessFactor":1,"baseColorTexture":{"index":0}},"alphaMode":"MASK","alphaCutoff":0.01,"name":"metal_crate_0"}],"textures":[{"sampler":0,"source":0,"name":"metal_crate_0"}],"samplers":[{"magFilter":9728,"minFilter":9728,"wrapS":33071,"wrapT":33071}],"images":[{"mimeType":"image/png","uri":"data:image/png;base64,"}],"meshes":[{"primitives":[{"mode":4,"attributes":{"POSITION":0,"NORMAL":1,"TEXCOORD_0":2},"indices":3,"material":0}]}]}